<svg xmlns="http://www.w3.org/2000/svg" xmlns:xlink="http://www.w3.org/1999/xlink" version="1.1" x="0px" y="0px" viewBox="0 0 100 125" style="enable-background:new 0 0 100 100;" xml:space="preserve"><g><path d="M40.4,63.7H25.9c-6.9,0-12.6-5.6-12.6-12.6v-4c0-6.9,5.6-12.6,12.6-12.6h16.5c6.9,0,12.6,5.6,12.6,12.6v6c0,1.7,1.3,3,3,3   s3-1.3,3-3v-6c0-10.2-8.3-18.6-18.6-18.6H25.9c-10.2,0-18.6,8.3-18.6,18.6v4c0,10.2,8.3,18.6,18.6,18.6h14.5c1.7,0,3-1.3,3-3   S42,63.7,40.4,63.7z"/><path d="M74.4,28.5H61.9c-1.7,0-3,1.3-3,3s1.3,3,3,3h12.5c6.9,0,12.6,5.6,12.6,12.6v4c0,6.9-5.6,12.6-12.6,12.6H59.9   c-6.9,0-12.6-5.6-12.6-12.6v-6c0-1.7-1.3-3-3-3s-3,1.3-3,3v6c0,10.2,8.3,18.6,18.6,18.6h14.5c10.2,0,18.6-8.3,18.6-18.6v-4   C93,36.9,84.7,28.5,74.4,28.5z"/></g></svg>